<svg width="17" height="16" viewBox="0 0 17 16" fill="none" xmlns="http://www.w3.org/2000/svg">
<path fill-rule="evenodd" clip-rule="evenodd" d="M0.496582 1.01099C0.496582 1.44044 0.844722 1.78858 1.27418 1.78858H2.96201L5.34279 6.90451C5.34158 6.90712 5.34038 6.90975 5.33919 6.91239L4.52213 8.72641C4.16939 9.50954 4.5183 10.4303 5.30143 10.7831C5.50221 10.8735 5.71991 10.9203 5.94012 10.9203H14.1063C14.5358 10.9203 14.8839 10.5721 14.8839 10.1427C14.8839 9.71323 14.5358 9.36509 14.1063 9.36509H5.94012L6.46069 8.20933H13.4927L16.7786 2.47028C16.992 2.0976 16.8629 1.62249 16.4902 1.40911C16.1175 1.19572 15.6424 1.32487 15.429 1.69756L12.5911 6.65415H6.94163L3.95361 0.233398H1.27418C0.844722 0.233398 0.496582 0.581539 0.496582 1.01099ZM8.27251 13.4525C8.27251 14.3114 7.57623 15.0077 6.71733 15.0077C5.85842 15.0077 5.16214 14.3114 5.16214 13.4525C5.16214 12.5936 5.85842 11.8973 6.71733 11.8973C7.57623 11.8973 8.27251 12.5936 8.27251 13.4525ZM12.9381 15.0077C13.797 15.0077 14.4933 14.3114 14.4933 13.4525C14.4933 12.5936 13.797 11.8973 12.9381 11.8973C12.0792 11.8973 11.3829 12.5936 11.3829 13.4525C11.3829 14.3114 12.0792 15.0077 12.9381 15.0077Z" fill="#662AF9"/>
</svg>
