<svg width="23" height="21" viewBox="0 0 23 21" fill="none" xmlns="http://www.w3.org/2000/svg">
<path fill-rule="evenodd" clip-rule="evenodd" d="M0.511719 1.49257C0.511719 2.07393 0.982998 2.5452 1.56435 2.5452H3.84917L7.07205 9.47064C7.0704 9.4742 7.06876 9.47778 7.06715 9.48137L5.96109 11.937C5.48359 12.9971 5.9559 14.2436 7.01604 14.7211C7.28783 14.8436 7.58253 14.9069 7.88062 14.9069H18.9352C19.5166 14.9069 19.9879 14.4356 19.9879 13.8542C19.9879 13.2729 19.5166 12.8016 18.9352 12.8016H7.88062L8.58534 11.237H18.1047L22.5528 3.46803C22.8417 2.96351 22.6668 2.32036 22.1623 2.0315C21.6578 1.74265 21.0147 1.91747 20.7258 2.42198L16.8841 9.13174H9.23641L5.19152 0.439941H1.56435C0.982998 0.439941 0.511719 0.911221 0.511719 1.49257ZM11.038 18.3347C11.038 19.4974 10.0954 20.44 8.93273 20.44C7.77002 20.44 6.82747 19.4974 6.82747 18.3347C6.82747 17.172 7.77002 16.2295 8.93273 16.2295C10.0954 16.2295 11.038 17.172 11.038 18.3347ZM17.3539 20.44C18.5166 20.44 19.4592 19.4974 19.4592 18.3347C19.4592 17.172 18.5166 16.2295 17.3539 16.2295C16.1912 16.2295 15.2486 17.172 15.2486 18.3347C15.2486 19.4974 16.1912 20.44 17.3539 20.44Z" fill="#C9D6E4"/>
<mask id="mask0" mask-type="alpha" maskUnits="userSpaceOnUse" x="0" y="0" width="23" height="21">
<path fill-rule="evenodd" clip-rule="evenodd" d="M0.511719 1.49257C0.511719 2.07393 0.982998 2.5452 1.56435 2.5452H3.84917L7.07205 9.47064C7.0704 9.4742 7.06876 9.47778 7.06715 9.48137L5.96109 11.937C5.48359 12.9971 5.9559 14.2436 7.01604 14.7211C7.28783 14.8436 7.58253 14.9069 7.88062 14.9069H18.9352C19.5166 14.9069 19.9879 14.4356 19.9879 13.8542C19.9879 13.2729 19.5166 12.8016 18.9352 12.8016H7.88062L8.58534 11.237H18.1047L22.5528 3.46803C22.8417 2.96351 22.6668 2.32036 22.1623 2.0315C21.6578 1.74265 21.0147 1.91747 20.7258 2.42198L16.8841 9.13174H9.23641L5.19152 0.439941H1.56435C0.982998 0.439941 0.511719 0.911221 0.511719 1.49257ZM11.038 18.3347C11.038 19.4974 10.0954 20.44 8.93273 20.44C7.77002 20.44 6.82747 19.4974 6.82747 18.3347C6.82747 17.172 7.77002 16.2295 8.93273 16.2295C10.0954 16.2295 11.038 17.172 11.038 18.3347ZM17.3539 20.44C18.5166 20.44 19.4592 19.4974 19.4592 18.3347C19.4592 17.172 18.5166 16.2295 17.3539 16.2295C16.1912 16.2295 15.2486 17.172 15.2486 18.3347C15.2486 19.4974 16.1912 20.44 17.3539 20.44Z" fill="white"/>
</mask>
<g mask="url(#mask0)">
<rect x="-0.541016" y="-2.7179" width="25.2632" height="25.2632" fill="#C9D6E4"/>
</g>
</svg>
