<svg width="22" height="21" viewBox="0 0 22 21" fill="none" xmlns="http://www.w3.org/2000/svg">
<path fill-rule="evenodd" clip-rule="evenodd" d="M11.1085 3.60876L8.69474 6.41562C8.31384 6.85856 7.83488 7.20655 7.29591 7.43193L3.88055 8.86015L5.80415 12.0231C6.1077 12.5222 6.29065 13.0853 6.33845 13.6675L6.64137 17.3571L10.2439 16.505C10.8125 16.3706 11.4045 16.3706 11.973 16.505L15.5756 17.3571L15.8785 13.6675C15.9263 13.0853 16.1092 12.5222 16.4128 12.0231L18.3364 8.86015L14.921 7.43193C14.3821 7.20655 13.9031 6.85856 13.5222 6.41562L11.1085 3.60876ZM12.0578 0.872103C11.5582 0.291167 10.6587 0.291168 10.1591 0.872104L6.7961 4.78291C6.66913 4.93055 6.50947 5.04655 6.32982 5.12168L1.57119 7.11162C0.864308 7.40722 0.586345 8.2627 0.984472 8.91734L3.66463 13.3243C3.76581 13.4907 3.8268 13.6784 3.84273 13.8724L4.26478 19.0131C4.32747 19.7767 5.05519 20.3054 5.80082 20.1291L10.8203 18.9419C11.0098 18.8971 11.2071 18.8971 11.3966 18.9419L16.4161 20.1291C17.1617 20.3054 17.8895 19.7767 17.9522 19.0131L18.3742 13.8724C18.3901 13.6784 18.4511 13.4907 18.5523 13.3243L21.2325 8.91734C21.6306 8.2627 21.3526 7.40722 20.6457 7.11162L15.8871 5.12168C15.7075 5.04655 15.5478 4.93055 15.4208 4.78291L12.0578 0.872103Z" fill="#662AF9"/>
</svg>
