<svg width="18" height="22" viewBox="0 0 18 22" fill="none" xmlns="http://www.w3.org/2000/svg">
<path d="M5.63479 2.83054H15.0472C15.3477 2.83054 15.5913 3.07412 15.5913 3.37457V16.4366C15.5913 16.7371 15.3477 16.9807 15.0472 16.9807H5.63479C5.33433 16.9807 5.09075 16.7371 5.09075 16.4366V3.37457C5.09075 3.07411 5.33432 2.83054 5.63479 2.83054ZM5.63479 1.14248C4.40203 1.14248 3.40269 2.14182 3.40269 3.37457V3.91623H2.9527C1.71995 3.91623 0.720605 4.91558 0.720605 6.14833V19.2104C0.720605 20.4431 1.71995 21.4425 2.9527 21.4425H12.3651C13.5979 21.4425 14.5972 20.4431 14.5972 19.2104V18.6687H15.0472C16.28 18.6687 17.2793 17.6694 17.2793 16.4366V3.37457C17.2793 2.14182 16.28 1.14248 15.0472 1.14248H5.63479ZM2.9527 5.6043H3.40269V16.4366C3.40269 17.6694 4.40204 18.6687 5.63479 18.6687H12.9092V19.2104C12.9092 19.5108 12.6656 19.7544 12.3651 19.7544H2.9527C2.65224 19.7544 2.40867 19.5108 2.40867 19.2104V6.14833C2.40867 5.84787 2.65224 5.6043 2.9527 5.6043ZM7.9036 6.02374C7.43746 6.02374 7.05957 6.40163 7.05957 6.86778C7.05957 7.33392 7.43746 7.71181 7.9036 7.71181H12.589C13.0551 7.71181 13.433 7.33392 13.433 6.86778C13.433 6.40163 13.0551 6.02374 12.589 6.02374H7.9036ZM7.9036 9.06047C7.43746 9.06047 7.05957 9.43836 7.05957 9.9045C7.05957 10.3706 7.43746 10.7485 7.9036 10.7485H12.589C13.0551 10.7485 13.433 10.3706 13.433 9.9045C13.433 9.43836 13.0551 9.06047 12.589 9.06047H7.9036ZM7.9036 12.0969C7.43746 12.0969 7.05957 12.4747 7.05957 12.9409C7.05957 13.407 7.43746 13.7849 7.9036 13.7849H12.589C13.0551 13.7849 13.433 13.407 13.433 12.9409C13.433 12.4747 13.0551 12.0969 12.589 12.0969H7.9036Z" fill="#662AF9" stroke="#B5C4D5" stroke-width="0.3"/>
</svg>
