<svg width="22" height="18" viewBox="0 0 22 18" fill="none" xmlns="http://www.w3.org/2000/svg">
<path d="M3.65466 2.45243H17.9401C18.3338 2.45243 18.6914 2.60626 18.9564 2.85744C18.888 3.08098 18.7655 3.29151 18.5884 3.46859L11.683 10.374C11.1059 10.9511 10.1703 10.9511 9.59329 10.374L2.68788 3.46859C2.57966 3.36038 2.49187 3.23975 2.42435 3.11137C2.68942 2.71385 3.14158 2.45243 3.65466 2.45243ZM2.17704 13.4553V5.68382L8.23026 11.737C9.56009 13.0669 11.7162 13.0669 13.046 11.737L19.4177 5.36531V13.4553C19.4177 14.2713 18.7562 14.9329 17.9401 14.9329H3.65466C2.83859 14.9329 2.17704 14.2713 2.17704 13.4553ZM3.65466 0.524805C1.77399 0.524805 0.249414 2.04938 0.249414 3.93004V13.4553C0.249414 15.3359 1.77399 16.8605 3.65466 16.8605H17.9401C19.8208 16.8605 21.3454 15.3359 21.3454 13.4553V3.93005C21.3454 2.04938 19.8208 0.524805 17.9401 0.524805H3.65466Z" fill="#662AF9" stroke="#B5C4D5" stroke-width="0.3"/>
</svg>
