<svg width="13" height="15" viewBox="0 0 13 15" fill="none" xmlns="http://www.w3.org/2000/svg">
<path fill-rule="evenodd" clip-rule="evenodd" d="M9.61291 5.68438C9.61291 7.73128 7.95357 9.39062 5.90667 9.39062C3.85978 9.39062 2.20044 7.73128 2.20044 5.68438C2.20044 3.63749 3.85978 1.97815 5.90667 1.97815C7.95357 1.97815 9.61291 3.63749 9.61291 5.68438ZM11.3578 5.68438C11.3578 8.69495 8.91724 11.1355 5.90667 11.1355C2.89611 11.1355 0.455566 8.69495 0.455566 5.68438C0.455566 2.67382 2.89611 0.233276 5.90667 0.233276C8.91724 0.233276 11.3578 2.67382 11.3578 5.68438ZM10.6625 11.1037C10.3776 10.7151 9.83163 10.6311 9.44304 10.916C9.05445 11.2008 8.97038 11.7468 9.25526 12.1354L10.8419 14.2996C11.1268 14.6882 11.6728 14.7723 12.0614 14.4874C12.45 14.2025 12.534 13.6566 12.2491 13.268L10.6625 11.1037Z" fill="#662AF9"/>
</svg>
